<?xml version="1.0" standalone="no"?><!DOCTYPE svg PUBLIC "-//W3C//DTD SVG 1.1//EN" "http://www.w3.org/Graphics/SVG/1.1/DTD/svg11.dtd"><svg t="1699609150407" class="icon" viewBox="0 0 1024 1024" version="1.1" xmlns="http://www.w3.org/2000/svg" p-id="1019" xmlns:xlink="http://www.w3.org/1999/xlink" width="200" height="200"><path d="M773.46 512.53c0 190.72-43.68 296.27-293.5 296.27-249.78 0-293.47-132.63-293.47-296.27 0-51.68 13.12-89.34 36.18-116.64 25.05-29.76 61.92-47.21 106.44-57.28 44.08-9.95 95.67-12.59 150.85-12.59 56.19 0 108.69 2.74 153.28 13.14 44.08 10.28 80.48 28.03 105.13 58.01 22.4 27.23 35.09 64.49 35.09 115.36zM296.06 281.49c-44.22 15.45-79.76 37.46-101.81 70.49-13.38-10.36-22.76-25.87-24.86-43.98-4.15-35.64 21.36-67.91 57.04-72.06 31.68-3.7 60.7 16.09 69.63 45.55zM729.71 279.9c44.22 15.45 79.76 37.46 101.81 70.49 13.38-10.36 22.76-25.87 24.86-43.98 4.15-35.64-21.36-67.91-57.04-72.06-31.68-3.69-60.7 16.09-69.63 45.55z" fill="#E6FFDD" p-id="1020"></path><path d="M511.79 783.06c-94.78 0-171.89-59.72-171.89-133.13S417.02 516.8 511.79 516.8c94.78 0 171.89 59.72 171.89 133.13s-77.11 133.13-171.89 133.13z m0-239.92c-80.25 0-145.55 47.9-145.55 106.79s65.29 106.79 145.55 106.79 145.55-47.9 145.55-106.79-65.29-106.79-145.55-106.79zM352.16 408.37c-21.78 0-39.51-17.73-39.51-39.51s17.73-39.51 39.51-39.51c21.78 0 39.51 17.73 39.51 39.51s-17.73 39.51-39.51 39.51z m0-52.68c-7.26 0-13.17 5.91-13.17 13.17s5.91 13.17 13.17 13.17 13.17-5.91 13.17-13.17-5.91-13.17-13.17-13.17zM671.43 408.37c-21.79 0-39.51-17.73-39.51-39.51s17.72-39.51 39.51-39.51 39.51 17.73 39.51 39.51-17.72 39.51-39.51 39.51z m0-52.68c-7.26 0-13.17 5.91-13.17 13.17s5.91 13.17 13.17 13.17 13.17-5.91 13.17-13.17-5.9-13.17-13.17-13.17zM511.4 489.29c-35.56 0-63.41-22.05-63.41-50.2s27.85-50.2 63.41-50.2c35.56 0 63.41 22.05 63.41 50.2s-27.86 50.2-63.41 50.2z m0-74.07c-20.1 0-37.07 10.93-37.07 23.86 0 12.94 16.98 23.86 37.07 23.86s37.07-10.93 37.07-23.86-16.98-23.86-37.07-23.86z" fill="#5DA993" p-id="1021"></path><path d="M426.92 695c-5.1 0-9.96-2.98-12.1-7.97-3.6-8.37-5.43-17.14-5.43-26.08 0-7.28 5.9-13.17 13.17-13.17s13.17 5.89 13.17 13.17c0 5.33 1.1 10.61 3.28 15.67 2.87 6.68-0.21 14.43-6.89 17.3-1.69 0.73-3.46 1.08-5.2 1.08zM511.79 741.57c-23.65 0-46.69-6.43-64.88-18.13-6.12-3.93-7.89-12.08-3.96-18.2 3.93-6.12 12.08-7.91 18.2-3.96 13.99 8.99 31.98 13.94 50.64 13.94 11.64 0 22.8-1.85 33.2-5.5 8.23-2.89 15.61-6.79 21.96-11.58 13.49-10.19 20.91-23.4 20.91-37.19 0-7.28 5.89-13.17 13.17-13.17s13.17 5.89 13.17 13.17c0 22.24-11.14 42.91-31.37 58.2-8.52 6.44-18.31 11.63-29.11 15.42-13.2 4.64-27.31 7-41.93 7z" fill="#5DA993" p-id="1022"></path><path d="M511.77 838.59c-144.59 0-243.19-35.67-301.43-109.06-46.41-58.48-67.11-138.51-67.11-259.48 0-62.83 15.36-111.39 46.96-148.45 30.05-35.36 74.55-59.24 136.03-73.01 47.68-10.66 104.9-15.42 185.55-15.42 82.2 0 140.36 4.96 188.57 16.1 60.82 14.05 104.81 38.26 134.48 74 30.64 36.89 45.53 84.9 45.53 146.79 0 134.89-20.15 216.23-67.38 271.98-55.8 65.87-151.51 96.55-301.2 96.55z m0-579.08c-78.63 0-134.08 4.56-179.79 14.78-55.69 12.47-95.51 33.53-121.73 64.38-27.38 32.11-40.68 75.08-40.68 131.38 0 114.61 18.94 189.59 61.41 243.1 52.92 66.68 144.77 99.1 280.79 99.1 289.31 0 342.24-115.24 342.24-342.2 0-55.48-12.9-97.99-39.45-129.96-25.86-31.14-65.16-52.46-120.15-65.16-46.18-10.66-102.51-15.42-182.64-15.42z" fill="#5DA993" p-id="1023"></path><path d="M200.21 343.32c-3.44 0-6.74-1.34-9.21-3.76-17.47-17.1-27.09-39.94-27.09-64.33 0-49.53 40.29-89.82 89.82-89.82 43.47 0 80.62 30.99 88.34 73.69 1.26 6.95-3.19 13.65-10.08 15.19-55.7 12.47-95.51 33.53-121.73 64.38a13.2 13.2 0 0 1-9.43 4.63c-0.21 0.01-0.41 0.02-0.62 0.02z m53.52-131.57c-35 0-63.48 28.48-63.48 63.48 0 12.65 3.66 24.71 10.49 35.02 27.12-26.74 64-45.96 112.01-58.41-9.36-23.82-32.53-40.09-59.02-40.09z" fill="#5DA993" p-id="1024"></path><path d="M824.69 344.85a13.161 13.161 0 0 1-10.14-4.76c-25.85-31.14-65.15-52.45-120.14-65.16-6.8-1.57-11.19-8.18-10.01-15.06 7.4-43.15 44.62-74.47 88.49-74.47 49.52 0 89.82 40.29 89.82 89.82 0 25.08-10.61 49.2-29.12 66.16a13.127 13.127 0 0 1-8.9 3.47z m-111.13-92.3c47.67 12.72 84.22 32.27 111.04 59.43 7.58-10.66 11.76-23.52 11.76-36.76 0-35-28.47-63.48-63.48-63.48-26.83 0.01-50.15 16.58-59.32 40.81z" fill="#5DA993" p-id="1025"></path></svg>